<svg xmlns="http://www.w3.org/2000/svg" xmlns:svg="http://www.w3.org/2000/svg" xmlns:xlink="http://www.w3.org/1999/xlink" id="svg3055" width="340" height="86" version="1.1"><metadata id="metadata3061"/><defs id="defs3059"><linearGradient id="linearGradient12648" x1="0" x2="1" y1="0" y2="0" gradientTransform="translate(-44.21456,-9.8500092)" gradientUnits="userSpaceOnUse" xlink:href="#linearGradient11392"/><linearGradient id="linearGradient5344" x1="-7708.797" x2="-7633.153" y1="-803.36" y2="-714.907" gradientTransform="matrix(0.4226,-0.9063,0.9063,0.4226,4226.9761,-6584.5938)" gradientUnits="userSpaceOnUse" xlink:href="#SVGID_1_"/><linearGradient id="linearGradient5346" x1="-8268.639" x2="-7728.958" y1="-813.123" y2="-813.123" gradientTransform="matrix(0.4226,-0.9063,0.9063,0.4226,4226.9761,-6584.5938)" gradientUnits="userSpaceOnUse" xlink:href="#SVGID_2_"/><linearGradient id="linearGradient5348" x1="-8203.492" x2="-7881.895" y1="-758.994" y2="-758.994" gradientTransform="matrix(0.4226,-0.9063,0.9063,0.4226,4226.9761,-6584.5938)" gradientUnits="userSpaceOnUse" xlink:href="#SVGID_3_"/><linearGradient id="linearGradient5350" x1="-8238.328" x2="-7698.647" y1="-818.152" y2="-818.152" gradientTransform="matrix(0.4226,-0.9063,0.9063,0.4226,4226.9761,-6584.5938)" gradientUnits="userSpaceOnUse" xlink:href="#SVGID_4_"/><linearGradient id="linearGradient5352" x1="-8198.968" x2="-7915.35" y1="-810.851" y2="-810.851" gradientTransform="matrix(0.4226,-0.9063,0.9063,0.4226,4226.9761,-6584.5938)" gradientUnits="userSpaceOnUse" xlink:href="#SVGID_5_"/><linearGradient id="linearGradient5354" x1="-8238.328" x2="-7698.647" y1="-762.297" y2="-762.297" gradientTransform="matrix(0.4226,-0.9063,0.9063,0.4226,4226.9761,-6584.5938)" gradientUnits="userSpaceOnUse" xlink:href="#SVGID_6_"/><linearGradient id="linearGradient5356" x1="-8271.806" x2="-7732.125" y1="-765.071" y2="-765.071" gradientTransform="matrix(0.4226,-0.9063,0.9063,0.4226,4226.9761,-6584.5938)" gradientUnits="userSpaceOnUse" xlink:href="#SVGID_7_"/><linearGradient id="linearGradient5358" x1="-8238.328" x2="-7698.647" y1="-745.685" y2="-745.685" gradientTransform="matrix(0.4226,-0.9063,0.9063,0.4226,4226.9761,-6584.5938)" gradientUnits="userSpaceOnUse" xlink:href="#SVGID_8_"/><linearGradient id="linearGradient5360" x1="-8238.328" x2="-7698.647" y1="-747.586" y2="-747.586" gradientTransform="matrix(0.4226,-0.9063,0.9063,0.4226,4226.9761,-6584.5938)" gradientUnits="userSpaceOnUse" xlink:href="#SVGID_9_"/><linearGradient id="linearGradient5362" x1="-7935.143" x2="-7815.856" y1="-747.967" y2="-747.967" gradientTransform="matrix(0.4226,-0.9063,0.9063,0.4226,4226.9761,-6584.5938)" gradientUnits="userSpaceOnUse" xlink:href="#SVGID_10_"/><linearGradient id="linearGradient7396" x1="-7708.797" x2="-7633.153" y1="-803.36" y2="-714.907" gradientTransform="matrix(0.4226,-0.9063,0.9063,0.4226,4226.9761,-6584.5938)" gradientUnits="userSpaceOnUse" xlink:href="#SVGID_1_"/><linearGradient id="linearGradient7398" x1="-8268.639" x2="-7728.958" y1="-813.123" y2="-813.123" gradientTransform="matrix(0.4226,-0.9063,0.9063,0.4226,4226.9761,-6584.5938)" gradientUnits="userSpaceOnUse" xlink:href="#SVGID_2_"/><linearGradient id="linearGradient7400" x1="-8203.492" x2="-7881.895" y1="-758.994" y2="-758.994" gradientTransform="matrix(0.4226,-0.9063,0.9063,0.4226,4226.9761,-6584.5938)" gradientUnits="userSpaceOnUse" xlink:href="#SVGID_3_"/><linearGradient id="linearGradient7402" x1="-8238.328" x2="-7698.647" y1="-818.152" y2="-818.152" gradientTransform="matrix(0.4226,-0.9063,0.9063,0.4226,4226.9761,-6584.5938)" gradientUnits="userSpaceOnUse" xlink:href="#SVGID_4_"/><linearGradient id="linearGradient7404" x1="-8198.968" x2="-7915.35" y1="-810.851" y2="-810.851" gradientTransform="matrix(0.4226,-0.9063,0.9063,0.4226,4226.9761,-6584.5938)" gradientUnits="userSpaceOnUse" xlink:href="#SVGID_5_"/><linearGradient id="linearGradient7406" x1="-8238.328" x2="-7698.647" y1="-762.297" y2="-762.297" gradientTransform="matrix(0.4226,-0.9063,0.9063,0.4226,4226.9761,-6584.5938)" gradientUnits="userSpaceOnUse" xlink:href="#SVGID_6_"/><linearGradient id="linearGradient7408" x1="-8271.806" x2="-7732.125" y1="-765.071" y2="-765.071" gradientTransform="matrix(0.4226,-0.9063,0.9063,0.4226,4226.9761,-6584.5938)" gradientUnits="userSpaceOnUse" xlink:href="#SVGID_7_"/><linearGradient id="linearGradient7410" x1="-8238.328" x2="-7698.647" y1="-745.685" y2="-745.685" gradientTransform="matrix(0.4226,-0.9063,0.9063,0.4226,4226.9761,-6584.5938)" gradientUnits="userSpaceOnUse" xlink:href="#SVGID_8_"/><linearGradient id="linearGradient7412" x1="-8238.328" x2="-7698.647" y1="-747.586" y2="-747.586" gradientTransform="matrix(0.4226,-0.9063,0.9063,0.4226,4226.9761,-6584.5938)" gradientUnits="userSpaceOnUse" xlink:href="#SVGID_9_"/><linearGradient id="linearGradient7414" x1="-7935.143" x2="-7815.856" y1="-747.967" y2="-747.967" gradientTransform="matrix(0.4226,-0.9063,0.9063,0.4226,4226.9761,-6584.5938)" gradientUnits="userSpaceOnUse" xlink:href="#SVGID_10_"/></defs><g id="g8927"><g id="g7248" transform="matrix(0.09561334,-0.07017507,0.07017507,0.09561334,132.73733,36.368381)"><linearGradient id="linearGradient7250" x1="-7708.797" x2="-7633.153" y1="-803.36" y2="-714.907" gradientTransform="matrix(0.4226,-0.9063,0.9063,0.4226,4226.9761,-6584.5938)" gradientUnits="userSpaceOnUse"><stop id="stop7252" offset="0" stop-color="#f69923" stop-opacity="1"/><stop id="stop7254" offset=".312" stop-color="#f79a23" stop-opacity="1"/><stop id="stop7256" offset=".838" stop-color="#e97826" stop-opacity="1"/></linearGradient><path id="path7258" fill="url(#linearGradient7396)" d="m 267.1,19.6 c -8.4,5 -22.4,19 -39,39.3 l 15.3,28.9 c 10.7,-15.4 21.7,-29.2 32.7,-41 0.8,-0.9 1.3,-1.4 1.3,-1.4 -0.4,0.5 -0.9,0.9 -1.3,1.4 -3.6,3.9 -14.4,16.5 -30.7,41.6 15.7,-0.8 39.8,-4 59.5,-7.4 5.9,-32.8 -5.7,-47.8 -5.7,-47.8 0,0 -14.8,-23.9 -32.1,-13.6 z"/><path id="path7260" fill="none" d="m 241.1,184.4 c 0.1,0 0.2,0 0.3,-0.1 l -2.2,0.2 c -0.1,0.1 -0.3,0.1 -0.4,0.2 0.8,-0.1 1.6,-0.2 2.3,-0.3 z"/><path id="path7262" fill="none" d="m 225.5,236.1 c -1.2,0.3 -2.5,0.5 -3.8,0.7 1.3,-0.2 2.6,-0.4 3.8,-0.7 z"/><path id="path7264" fill="none" d="m 119.3,352.2 c 0.2,-0.4 0.3,-0.9 0.5,-1.3 3.4,-8.9 6.7,-17.5 10,-26 3.7,-9.4 7.4,-18.6 11,-27.5 3.8,-9.3 7.6,-18.4 11.3,-27.1 3.9,-9.2 7.7,-18 11.5,-26.5 3.1,-6.9 6.1,-13.6 9.1,-20.1 1,-2.2 2,-4.3 3,-6.4 2,-4.2 3.9,-8.3 5.8,-12.3 1.8,-3.7 3.5,-7.3 5.2,-10.9 0.6,-1.2 1.2,-2.4 1.7,-3.5 0.1,-0.2 0.2,-0.4 0.3,-0.6 l -1.9,0.2 -1.5,-2.9 c -0.1,0.3 -0.3,0.6 -0.4,0.9 -2.7,5.3 -5.4,10.7 -8,16.2 -1.5,3.1 -3,6.3 -4.6,9.5 -4.2,8.8 -8.3,17.6 -12.3,26.6 -4.1,9 -8.1,18.1 -12,27.1 -3.9,8.9 -7.6,17.8 -11.3,26.7 -3.7,8.9 -7.3,17.7 -10.8,26.5 -3.7,9.2 -7.3,18.3 -10.7,27.3 -0.8,2 -1.6,4.1 -2.3,6.1 -2.8,7.3 -5.5,14.4 -8.1,21.5 l 2.4,4.7 2.1,-0.2 c 0.1,-0.2 0.2,-0.4 0.2,-0.6 3.1,-9.5 6.5,-18.6 9.8,-27.4 z"/><path id="path7266" fill="none" d="m 220.7,236.9 0,0 c 0,0 0,0 0,0 0,0 0,0 0,0 z"/><path id="path7268" fill="#be202e" d="m 215.6,262.2 c -2,0.4 -4,0.7 -6,1 0,0 0,0 0,0 1,-0.1 2.1,-0.3 3.1,-0.5 1,-0.1 2,-0.3 2.9,-0.5 z"/><path id="path7270" fill="#be202e" d="m 215.6,262.2 c -2,0.4 -4,0.7 -6,1 0,0 0,0 0,0 1,-0.1 2.1,-0.3 3.1,-0.5 1,-0.1 2,-0.3 2.9,-0.5 z" opacity=".35"/><path id="path7272" fill="#be202e" d="m 220.8,236.9 c 0,0 0,0 0,0 -0.1,0 -0.1,0 0,0 0.3,0 0.6,-0.1 0.9,-0.1 1.3,-0.2 2.6,-0.4 3.8,-0.7 -1.5,0.3 -3.1,0.5 -4.7,0.8 l 0,0 0,0 z"/><path id="path7274" fill="#be202e" d="m 220.8,236.9 c 0,0 0,0 0,0 -0.1,0 -0.1,0 0,0 0.3,0 0.6,-0.1 0.9,-0.1 1.3,-0.2 2.6,-0.4 3.8,-0.7 -1.5,0.3 -3.1,0.5 -4.7,0.8 l 0,0 0,0 z" opacity=".35"/><linearGradient id="linearGradient7276" x1="-8268.639" x2="-7728.958" y1="-813.123" y2="-813.123" gradientTransform="matrix(0.4226,-0.9063,0.9063,0.4226,4226.9761,-6584.5938)" gradientUnits="userSpaceOnUse"><stop id="stop7278" offset=".323" stop-color="#9e2064" stop-opacity="1"/><stop id="stop7280" offset=".63" stop-color="#c92037" stop-opacity="1"/><stop id="stop7282" offset=".751" stop-color="#cd2335" stop-opacity="1"/><stop id="stop7284" offset="1" stop-color="#e97826" stop-opacity="1"/></linearGradient><path id="path7286" fill="url(#linearGradient7398)" d="m 198.2,162.4 c 4.7,-8.7 9.4,-17.2 14.1,-25.5 4.9,-8.6 9.9,-16.9 15,-25 0.3,-0.5 0.6,-1 0.9,-1.4 5,-7.9 10,-15.5 15.1,-22.8 L 228,58.9 c -1.1,1.4 -2.3,2.8 -3.5,4.3 -4.4,5.5 -9,11.4 -13.7,17.7 -5.3,7.1 -10.7,14.6 -16.3,22.5 -5.1,7.3 -10.3,15 -15.5,22.9 -4.4,6.8 -8.8,13.7 -13.2,20.8 -0.2,0.3 -0.3,0.5 -0.5,0.8 l 19.9,39.3 c 4.4,-8.3 8.7,-16.6 13,-24.8 z"/><linearGradient id="linearGradient7288" x1="-8203.492" x2="-7881.895" y1="-758.994" y2="-758.994" gradientTransform="matrix(0.4226,-0.9063,0.9063,0.4226,4226.9761,-6584.5938)" gradientUnits="userSpaceOnUse"><stop id="stop7290" offset="0" stop-color="#282662" stop-opacity="1"/><stop id="stop7292" offset=".095" stop-color="#662e8d" stop-opacity="1"/><stop id="stop7294" offset=".788" stop-color="#9f2064" stop-opacity="1"/><stop id="stop7296" offset=".949" stop-color="#cd2032" stop-opacity="1"/></linearGradient><path id="path7298" fill="url(#linearGradient7400)" d="m 107.5,384.1 c -2.6,7.2 -5.3,14.6 -7.9,22.2 0,0.1 -0.1,0.2 -0.1,0.3 -0.4,1.1 -0.8,2.1 -1.1,3.2 -1.8,5.1 -3.3,9.7 -6.9,20.1 5.9,2.7 10.6,9.7 15,17.7 -0.5,-8.3 -3.9,-16.1 -10.4,-22.1 28.9,1.3 53.9,-6 66.7,-27.2 1.1,-1.9 2.2,-3.9 3.2,-6 -5.9,7.4 -13.1,10.6 -26.8,9.8 0,0 -0.1,0 -0.1,0 0,0 0.1,0 0.1,0 20.1,-9 30.2,-17.7 39.1,-32 2.1,-3.4 4.2,-7.1 6.3,-11.2 -17.6,18.1 -38,23.2 -59.5,19.3 L 109,380 c -0.5,1.4 -1,2.7 -1.5,4.1 z"/><linearGradient id="linearGradient7300" x1="-8238.328" x2="-7698.647" y1="-818.152" y2="-818.152" gradientTransform="matrix(0.4226,-0.9063,0.9063,0.4226,4226.9761,-6584.5938)" gradientUnits="userSpaceOnUse"><stop id="stop7302" offset=".323" stop-color="#9e2064" stop-opacity="1"/><stop id="stop7304" offset=".63" stop-color="#c92037" stop-opacity="1"/><stop id="stop7306" offset=".751" stop-color="#cd2335" stop-opacity="1"/><stop id="stop7308" offset="1" stop-color="#e97826" stop-opacity="1"/></linearGradient><path id="path7310" fill="url(#linearGradient7402)" d="m 115,348 c 3.5,-9 7.1,-18.1 10.7,-27.3 3.5,-8.8 7.1,-17.6 10.8,-26.5 3.7,-8.9 7.5,-17.8 11.3,-26.7 3.9,-9.1 7.9,-18.1 12,-27.1 4,-8.9 8.2,-17.8 12.3,-26.6 1.5,-3.2 3,-6.3 4.6,-9.5 2.6,-5.4 5.3,-10.8 8,-16.2 0.1,-0.3 0.3,-0.6 0.4,-0.9 L 165.4,148 c -0.3,0.5 -0.6,1.1 -1,1.6 -4.6,7.6 -9.3,15.3 -13.8,23.2 -4.6,8 -9.1,16.1 -13.5,24.4 -3.7,7 -7.3,14 -10.9,21.1 -0.7,1.4 -1.4,2.9 -2.1,4.3 -4.3,8.9 -8.3,17.6 -11.8,25.9 -4,9.4 -7.5,18.4 -10.6,26.9 -2,5.6 -3.9,11 -5.6,16.2 -1.4,4.4 -2.7,8.9 -4,13.3 -3,10.4 -5.5,20.8 -7.6,31.2 l 20,39.5 c 2.6,-7.1 5.4,-14.2 8.1,-21.5 0.8,-2 1.6,-4 2.4,-6.1 z"/><linearGradient id="linearGradient7312" x1="-8198.968" x2="-7915.35" y1="-810.851" y2="-810.851" gradientTransform="matrix(0.4226,-0.9063,0.9063,0.4226,4226.9761,-6584.5938)" gradientUnits="userSpaceOnUse"><stop id="stop7314" offset="0" stop-color="#282662" stop-opacity="1"/><stop id="stop7316" offset=".095" stop-color="#662e8d" stop-opacity="1"/><stop id="stop7318" offset=".788" stop-color="#9f2064" stop-opacity="1"/><stop id="stop7320" offset=".949" stop-color="#cd2032" stop-opacity="1"/></linearGradient><path id="path7322" fill="url(#linearGradient7404)" d="m 84.2,337.5 c -2.5,12.6 -4.3,25.2 -5.2,37.8 0,0.4 -0.1,0.9 -0.1,1.3 -6.2,-10 -23,-19.8 -22.9,-19.7 12,17.4 21.1,34.6 22.4,51.5 -6.4,1.3 -15.2,-0.6 -25.3,-4.3 10.6,9.7 18.5,12.4 21.6,13.1 -9.7,0.6 -19.8,7.3 -30,15 14.9,-6.1 27,-8.5 35.6,-6.5 -13.7,38.7 -27.4,81.5 -41.1,126.9 4.2,-1.2 6.7,-4.1 8.1,-7.9 2.4,-8.2 18.7,-62.2 44.1,-133.1 0.7,-2 1.5,-4 2.2,-6.1 0.2,-0.6 0.4,-1.1 0.6,-1.7 2.7,-7.4 5.5,-15 8.4,-22.8 0.7,-1.8 1.3,-3.5 2,-5.3 0,0 0,-0.1 0,-0.1 l -20,-39.5 c -0.2,0.5 -0.3,0.9 -0.4,1.4 z"/><linearGradient id="linearGradient7324" x1="-8238.328" x2="-7698.647" y1="-762.297" y2="-762.297" gradientTransform="matrix(0.4226,-0.9063,0.9063,0.4226,4226.9761,-6584.5938)" gradientUnits="userSpaceOnUse"><stop id="stop7326" offset=".323" stop-color="#9e2064" stop-opacity="1"/><stop id="stop7328" offset=".63" stop-color="#c92037" stop-opacity="1"/><stop id="stop7330" offset=".751" stop-color="#cd2335" stop-opacity="1"/><stop id="stop7332" offset="1" stop-color="#e97826" stop-opacity="1"/></linearGradient><path id="path7334" fill="url(#linearGradient7406)" d="m 188.4,190.6 c -0.6,1.2 -1.1,2.3 -1.7,3.5 -1.7,3.6 -3.5,7.2 -5.2,10.9 -1.9,4 -3.8,8.1 -5.8,12.3 -1,2.1 -2,4.2 -3,6.4 -3,6.5 -6,13.2 -9.1,20.1 -3.8,8.5 -7.6,17.3 -11.5,26.5 -3.7,8.7 -7.5,17.8 -11.3,27.1 -3.6,8.9 -7.3,18 -11,27.5 -3.3,8.4 -6.6,17.1 -10,26 -0.2,0.4 -0.3,0.9 -0.5,1.3 -3.3,8.8 -6.7,17.9 -10.1,27.2 -0.1,0.2 -0.2,0.4 -0.2,0.6 l 16.1,-1.8 c -0.3,-0.1 -0.6,-0.1 -1,-0.2 19.3,-2.4 44.9,-16.8 61.4,-34.6 7.6,-8.2 14.5,-17.8 20.9,-29.1 4.8,-8.4 9.2,-17.7 13.5,-28.1 3.7,-9 7.3,-18.8 10.7,-29.4 -4.4,2.3 -9.5,4 -15.1,5.2 -1,0.2 -2,0.4 -3,0.6 -1,0.2 -2,0.3 -3.1,0.5 l 0,0 0,0 c 0,0 0,0 0,0 18,-6.9 29.3,-20.2 37.5,-36.6 -4.7,3.2 -12.4,7.4 -21.6,9.5 -1.2,0.3 -2.5,0.5 -3.8,0.7 -0.3,0 -0.6,0.1 -1,0.1 l 0,0 0,0 c 0,0 0,0 0,0 0,0 0,0 0,0 l 0,0 c 6.2,-2.6 11.5,-5.5 16.1,-9 1,-0.7 1.9,-1.5 2.8,-2.3 1.4,-1.2 2.7,-2.5 4,-3.8 0.8,-0.9 1.6,-1.7 2.4,-2.6 1.8,-2.1 3.5,-4.4 5,-6.9 0.5,-0.8 1,-1.5 1.4,-2.3 0.6,-1.2 1.2,-2.3 1.7,-3.4 2.5,-5 4.5,-9.5 6.1,-13.5 0.8,-2 1.5,-3.8 2.1,-5.5 0.2,-0.7 0.5,-1.3 0.7,-2 0.6,-1.9 1.2,-3.6 1.6,-5.1 0.6,-2.2 1,-4 1.2,-5.3 l 0,0 0,0 c -0.6,0.5 -1.3,1 -2.1,1.4 -5.4,3.2 -14.7,6.2 -22.2,7.6 l 14.8,-1.6 -14.8,1.6 c -0.1,0 -0.2,0 -0.3,0.1 -0.7,0.1 -1.5,0.2 -2.3,0.4 0.1,-0.1 0.3,-0.1 0.4,-0.2 l -50.6,5.5 c 0.1,0.4 0,0.6 -0.1,0.7 z"/><linearGradient id="linearGradient7336" x1="-8271.806" x2="-7732.125" y1="-765.071" y2="-765.071" gradientTransform="matrix(0.4226,-0.9063,0.9063,0.4226,4226.9761,-6584.5938)" gradientUnits="userSpaceOnUse"><stop id="stop7338" offset=".323" stop-color="#9e2064" stop-opacity="1"/><stop id="stop7340" offset=".63" stop-color="#c92037" stop-opacity="1"/><stop id="stop7342" offset=".751" stop-color="#cd2335" stop-opacity="1"/><stop id="stop7344" offset="1" stop-color="#e97826" stop-opacity="1"/></linearGradient><path id="path7346" fill="url(#linearGradient7408)" d="m 245.4,88.4 c -4.5,6.9 -9.4,14.8 -14.7,23.6 -0.3,0.5 -0.6,0.9 -0.8,1.4 -4.6,7.7 -9.4,16.1 -14.5,25.4 -4.4,8 -9,16.5 -13.8,25.8 -4.2,8 -8.4,16.5 -12.9,25.5 l 50.6,-5.5 c 14.7,-6.8 21.3,-12.9 27.7,-21.8 1.7,-2.4 3.4,-5 5.1,-7.7 5.2,-8.1 10.3,-17 14.8,-25.9 4.4,-8.6 8.3,-17.1 11.2,-24.7 1.9,-4.9 3.4,-9.4 4.5,-13.4 0.9,-3.5 1.6,-6.8 2.2,-10 -19.6,3.3 -43.7,6.5 -59.4,7.3 z"/><path id="path7348" fill="#be202e" d="m 212.7,262.8 c -1,0.2 -2,0.3 -3.1,0.5 l 0,0 c 1,-0.2 2,-0.4 3.1,-0.5 z"/><path id="path7350" fill="#be202e" d="m 212.7,262.8 c -1,0.2 -2,0.3 -3.1,0.5 l 0,0 c 1,-0.2 2,-0.4 3.1,-0.5 z" opacity=".35"/><linearGradient id="linearGradient7352" x1="-8238.328" x2="-7698.647" y1="-745.685" y2="-745.685" gradientTransform="matrix(0.4226,-0.9063,0.9063,0.4226,4226.9761,-6584.5938)" gradientUnits="userSpaceOnUse"><stop id="stop7354" offset=".323" stop-color="#9e2064" stop-opacity="1"/><stop id="stop7356" offset=".63" stop-color="#c92037" stop-opacity="1"/><stop id="stop7358" offset=".751" stop-color="#cd2335" stop-opacity="1"/><stop id="stop7360" offset="1" stop-color="#e97826" stop-opacity="1"/></linearGradient><path id="path7362" fill="url(#linearGradient7410)" d="m 212.7,262.8 c -1,0.2 -2,0.3 -3.1,0.5 l 0,0 c 1,-0.2 2,-0.4 3.1,-0.5 z"/><path id="path7364" fill="#be202e" d="m 220.7,236.9 c 0.3,0 0.6,-0.1 1,-0.1 -0.3,0 -0.6,0.1 -1,0.1 l 0,0 z"/><path id="path7366" fill="#be202e" d="m 220.7,236.9 c 0.3,0 0.6,-0.1 1,-0.1 -0.3,0 -0.6,0.1 -1,0.1 l 0,0 z" opacity=".35"/><linearGradient id="linearGradient7368" x1="-8238.328" x2="-7698.647" y1="-747.586" y2="-747.586" gradientTransform="matrix(0.4226,-0.9063,0.9063,0.4226,4226.9761,-6584.5938)" gradientUnits="userSpaceOnUse"><stop id="stop7370" offset=".323" stop-color="#9e2064" stop-opacity="1"/><stop id="stop7372" offset=".63" stop-color="#c92037" stop-opacity="1"/><stop id="stop7374" offset=".751" stop-color="#cd2335" stop-opacity="1"/><stop id="stop7376" offset="1" stop-color="#e97826" stop-opacity="1"/></linearGradient><path id="path7378" fill="url(#linearGradient7412)" d="m 220.7,236.9 c 0.3,0 0.6,-0.1 1,-0.1 -0.3,0 -0.6,0.1 -1,0.1 l 0,0 z"/><path id="path7380" fill="#be202e" d="m 220.8,236.9 c 0,0 0,0 0,0 l 0,0 0,0 0,0 c 0,0 0,0 0,0 z"/><path id="path7382" fill="#be202e" d="m 220.8,236.9 c 0,0 0,0 0,0 l 0,0 0,0 0,0 c 0,0 0,0 0,0 z" opacity=".35"/><linearGradient id="linearGradient7384" x1="-7935.143" x2="-7815.856" y1="-747.967" y2="-747.967" gradientTransform="matrix(0.4226,-0.9063,0.9063,0.4226,4226.9761,-6584.5938)" gradientUnits="userSpaceOnUse"><stop id="stop7386" offset=".323" stop-color="#9e2064" stop-opacity="1"/><stop id="stop7388" offset=".63" stop-color="#c92037" stop-opacity="1"/><stop id="stop7390" offset=".751" stop-color="#cd2335" stop-opacity="1"/><stop id="stop7392" offset="1" stop-color="#e97826" stop-opacity="1"/></linearGradient><path id="path7394" fill="url(#linearGradient7414)" d="m 220.8,236.9 c 0,0 0,0 0,0 l 0,0 0,0 0,0 c 0,0 0,0 0,0 z"/></g><text font-stretch="normal" style="line-height:125%;-inkscape-font-specification:Sans Italic" id="text5492" x="-.559" y="74.017" fill="#000" fill-opacity="1" stroke="none" font-family="Alte Haas Grotesk" font-size="100" font-style="italic" font-variant="normal" font-weight="bold" letter-spacing="0" word-spacing="0" xml:space="preserve"><tspan id="tspan5494" x="-.559" y="74.017">Ma<tspan id="tspan5500" fill="none" stroke="none">v</tspan>en</tspan></text><text font-stretch="normal" style="line-height:125%;-inkscape-font-specification:Sans Italic" id="text9112" x="316.345" y="35.198" fill="#000" fill-opacity="1" stroke="none" font-family="Alte Haas Grotesk" font-size="20" font-style="italic" font-variant="normal" font-weight="bold" letter-spacing="0" word-spacing="0" xml:space="preserve"><tspan id="tspan9114" x="316.345" y="35.198">™</tspan></text><g id="g4701" transform="matrix(0.13272567,0.01947468,-0.01947468,0.13272567,170.19741,12.570146)"><linearGradient id="SVGID_1_" x1="-7708.797" x2="-7633.153" y1="-803.36" y2="-714.907" gradientTransform="matrix(0.4226,-0.9063,0.9063,0.4226,4226.9761,-6584.5938)" gradientUnits="userSpaceOnUse"><stop id="stop4704" offset="0" stop-color="#f69923" stop-opacity="1"/><stop id="stop4706" offset=".312" stop-color="#f79a23" stop-opacity="1"/><stop id="stop4708" offset=".838" stop-color="#e97826" stop-opacity="1"/></linearGradient><path id="path4710" fill="url(#linearGradient5344)" d="m 267.1,19.6 c -8.4,5 -22.4,19 -39,39.3 l 15.3,28.9 c 10.7,-15.4 21.7,-29.2 32.7,-41 0.8,-0.9 1.3,-1.4 1.3,-1.4 -0.4,0.5 -0.9,0.9 -1.3,1.4 -3.6,3.9 -14.4,16.5 -30.7,41.6 15.7,-0.8 39.8,-4 59.5,-7.4 5.9,-32.8 -5.7,-47.8 -5.7,-47.8 0,0 -14.8,-23.9 -32.1,-13.6 z"/><path id="path4712" fill="none" d="m 241.1,184.4 c 0.1,0 0.2,0 0.3,-0.1 l -2.2,0.2 c -0.1,0.1 -0.3,0.1 -0.4,0.2 0.8,-0.1 1.6,-0.2 2.3,-0.3 z"/><path id="path4714" fill="none" d="m 225.5,236.1 c -1.2,0.3 -2.5,0.5 -3.8,0.7 1.3,-0.2 2.6,-0.4 3.8,-0.7 z"/><path id="path4716" fill="none" d="m 119.3,352.2 c 0.2,-0.4 0.3,-0.9 0.5,-1.3 3.4,-8.9 6.7,-17.5 10,-26 3.7,-9.4 7.4,-18.6 11,-27.5 3.8,-9.3 7.6,-18.4 11.3,-27.1 3.9,-9.2 7.7,-18 11.5,-26.5 3.1,-6.9 6.1,-13.6 9.1,-20.1 1,-2.2 2,-4.3 3,-6.4 2,-4.2 3.9,-8.3 5.8,-12.3 1.8,-3.7 3.5,-7.3 5.2,-10.9 0.6,-1.2 1.2,-2.4 1.7,-3.5 0.1,-0.2 0.2,-0.4 0.3,-0.6 l -1.9,0.2 -1.5,-2.9 c -0.1,0.3 -0.3,0.6 -0.4,0.9 -2.7,5.3 -5.4,10.7 -8,16.2 -1.5,3.1 -3,6.3 -4.6,9.5 -4.2,8.8 -8.3,17.6 -12.3,26.6 -4.1,9 -8.1,18.1 -12,27.1 -3.9,8.9 -7.6,17.8 -11.3,26.7 -3.7,8.9 -7.3,17.7 -10.8,26.5 -3.7,9.2 -7.3,18.3 -10.7,27.3 -0.8,2 -1.6,4.1 -2.3,6.1 -2.8,7.3 -5.5,14.4 -8.1,21.5 l 2.4,4.7 2.1,-0.2 c 0.1,-0.2 0.2,-0.4 0.2,-0.6 3.1,-9.5 6.5,-18.6 9.8,-27.4 z"/><path id="path4718" fill="none" d="m 220.7,236.9 0,0 c 0,0 0,0 0,0 0,0 0,0 0,0 z"/><path id="path4720" fill="#be202e" d="m 215.6,262.2 c -2,0.4 -4,0.7 -6,1 0,0 0,0 0,0 1,-0.1 2.1,-0.3 3.1,-0.5 1,-0.1 2,-0.3 2.9,-0.5 z"/><path id="path4722" fill="#be202e" d="m 215.6,262.2 c -2,0.4 -4,0.7 -6,1 0,0 0,0 0,0 1,-0.1 2.1,-0.3 3.1,-0.5 1,-0.1 2,-0.3 2.9,-0.5 z" opacity=".35"/><path id="path4724" fill="#be202e" d="m 220.8,236.9 c 0,0 0,0 0,0 -0.1,0 -0.1,0 0,0 0.3,0 0.6,-0.1 0.9,-0.1 1.3,-0.2 2.6,-0.4 3.8,-0.7 -1.5,0.3 -3.1,0.5 -4.7,0.8 l 0,0 0,0 z"/><path id="path4726" fill="#be202e" d="m 220.8,236.9 c 0,0 0,0 0,0 -0.1,0 -0.1,0 0,0 0.3,0 0.6,-0.1 0.9,-0.1 1.3,-0.2 2.6,-0.4 3.8,-0.7 -1.5,0.3 -3.1,0.5 -4.7,0.8 l 0,0 0,0 z" opacity=".35"/><linearGradient id="SVGID_2_" x1="-8268.639" x2="-7728.958" y1="-813.123" y2="-813.123" gradientTransform="matrix(0.4226,-0.9063,0.9063,0.4226,4226.9761,-6584.5938)" gradientUnits="userSpaceOnUse"><stop id="stop4729" offset=".323" stop-color="#9e2064" stop-opacity="1"/><stop id="stop4731" offset=".63" stop-color="#c92037" stop-opacity="1"/><stop id="stop4733" offset=".751" stop-color="#cd2335" stop-opacity="1"/><stop id="stop4735" offset="1" stop-color="#e97826" stop-opacity="1"/></linearGradient><path id="path4737" fill="url(#linearGradient5346)" d="m 198.2,162.4 c 4.7,-8.7 9.4,-17.2 14.1,-25.5 4.9,-8.6 9.9,-16.9 15,-25 0.3,-0.5 0.6,-1 0.9,-1.4 5,-7.9 10,-15.5 15.1,-22.8 L 228,58.9 c -1.1,1.4 -2.3,2.8 -3.5,4.3 -4.4,5.5 -9,11.4 -13.7,17.7 -5.3,7.1 -10.7,14.6 -16.3,22.5 -5.1,7.3 -10.3,15 -15.5,22.9 -4.4,6.8 -8.8,13.7 -13.2,20.8 -0.2,0.3 -0.3,0.5 -0.5,0.8 l 19.9,39.3 c 4.4,-8.3 8.7,-16.6 13,-24.8 z"/><linearGradient id="SVGID_3_" x1="-8203.492" x2="-7881.895" y1="-758.994" y2="-758.994" gradientTransform="matrix(0.4226,-0.9063,0.9063,0.4226,4226.9761,-6584.5938)" gradientUnits="userSpaceOnUse"><stop id="stop4740" offset="0" stop-color="#282662" stop-opacity="1"/><stop id="stop4742" offset=".095" stop-color="#662e8d" stop-opacity="1"/><stop id="stop4744" offset=".788" stop-color="#9f2064" stop-opacity="1"/><stop id="stop4746" offset=".949" stop-color="#cd2032" stop-opacity="1"/></linearGradient><path id="path4748" fill="url(#linearGradient5348)" d="m 107.5,384.1 c -2.6,7.2 -5.3,14.6 -7.9,22.2 0,0.1 -0.1,0.2 -0.1,0.3 -0.4,1.1 -0.8,2.1 -1.1,3.2 -1.8,5.1 -3.3,9.7 -6.9,20.1 5.9,2.7 10.6,9.7 15,17.7 -0.5,-8.3 -3.9,-16.1 -10.4,-22.1 28.9,1.3 53.9,-6 66.7,-27.2 1.1,-1.9 2.2,-3.9 3.2,-6 -5.9,7.4 -13.1,10.6 -26.8,9.8 0,0 -0.1,0 -0.1,0 0,0 0.1,0 0.1,0 20.1,-9 30.2,-17.7 39.1,-32 2.1,-3.4 4.2,-7.1 6.3,-11.2 -17.6,18.1 -38,23.2 -59.5,19.3 L 109,380 c -0.5,1.4 -1,2.7 -1.5,4.1 z"/><linearGradient id="SVGID_4_" x1="-8238.328" x2="-7698.647" y1="-818.152" y2="-818.152" gradientTransform="matrix(0.4226,-0.9063,0.9063,0.4226,4226.9761,-6584.5938)" gradientUnits="userSpaceOnUse"><stop id="stop4751" offset=".323" stop-color="#9e2064" stop-opacity="1"/><stop id="stop4753" offset=".63" stop-color="#c92037" stop-opacity="1"/><stop id="stop4755" offset=".751" stop-color="#cd2335" stop-opacity="1"/><stop id="stop4757" offset="1" stop-color="#e97826" stop-opacity="1"/></linearGradient><path id="path4759" fill="url(#linearGradient5350)" d="m 115,348 c 3.5,-9 7.1,-18.1 10.7,-27.3 3.5,-8.8 7.1,-17.6 10.8,-26.5 3.7,-8.9 7.5,-17.8 11.3,-26.7 3.9,-9.1 7.9,-18.1 12,-27.1 4,-8.9 8.2,-17.8 12.3,-26.6 1.5,-3.2 3,-6.3 4.6,-9.5 2.6,-5.4 5.3,-10.8 8,-16.2 0.1,-0.3 0.3,-0.6 0.4,-0.9 L 165.4,148 c -0.3,0.5 -0.6,1.1 -1,1.6 -4.6,7.6 -9.3,15.3 -13.8,23.2 -4.6,8 -9.1,16.1 -13.5,24.4 -3.7,7 -7.3,14 -10.9,21.1 -0.7,1.4 -1.4,2.9 -2.1,4.3 -4.3,8.9 -8.3,17.6 -11.8,25.9 -4,9.4 -7.5,18.4 -10.6,26.9 -2,5.6 -3.9,11 -5.6,16.2 -1.4,4.4 -2.7,8.9 -4,13.3 -3,10.4 -5.5,20.8 -7.6,31.2 l 20,39.5 c 2.6,-7.1 5.4,-14.2 8.1,-21.5 0.8,-2 1.6,-4 2.4,-6.1 z"/><linearGradient id="SVGID_5_" x1="-8198.968" x2="-7915.35" y1="-810.851" y2="-810.851" gradientTransform="matrix(0.4226,-0.9063,0.9063,0.4226,4226.9761,-6584.5938)" gradientUnits="userSpaceOnUse"><stop id="stop4762" offset="0" stop-color="#282662" stop-opacity="1"/><stop id="stop4764" offset=".095" stop-color="#662e8d" stop-opacity="1"/><stop id="stop4766" offset=".788" stop-color="#9f2064" stop-opacity="1"/><stop id="stop4768" offset=".949" stop-color="#cd2032" stop-opacity="1"/></linearGradient><path id="path4770" fill="url(#linearGradient5352)" d="m 84.2,337.5 c -2.5,12.6 -4.3,25.2 -5.2,37.8 0,0.4 -0.1,0.9 -0.1,1.3 -6.2,-10 -23,-19.8 -22.9,-19.7 12,17.4 21.1,34.6 22.4,51.5 -6.4,1.3 -15.2,-0.6 -25.3,-4.3 10.6,9.7 18.5,12.4 21.6,13.1 -9.7,0.6 -19.8,7.3 -30,15 14.9,-6.1 27,-8.5 35.6,-6.5 -13.7,38.7 -27.4,81.5 -41.1,126.9 4.2,-1.2 6.7,-4.1 8.1,-7.9 2.4,-8.2 18.7,-62.2 44.1,-133.1 0.7,-2 1.5,-4 2.2,-6.1 0.2,-0.6 0.4,-1.1 0.6,-1.7 2.7,-7.4 5.5,-15 8.4,-22.8 0.7,-1.8 1.3,-3.5 2,-5.3 0,0 0,-0.1 0,-0.1 l -20,-39.5 c -0.2,0.5 -0.3,0.9 -0.4,1.4 z"/><linearGradient id="SVGID_6_" x1="-8238.328" x2="-7698.647" y1="-762.297" y2="-762.297" gradientTransform="matrix(0.4226,-0.9063,0.9063,0.4226,4226.9761,-6584.5938)" gradientUnits="userSpaceOnUse"><stop id="stop4773" offset=".323" stop-color="#9e2064" stop-opacity="1"/><stop id="stop4775" offset=".63" stop-color="#c92037" stop-opacity="1"/><stop id="stop4777" offset=".751" stop-color="#cd2335" stop-opacity="1"/><stop id="stop4779" offset="1" stop-color="#e97826" stop-opacity="1"/></linearGradient><path id="path4781" fill="url(#linearGradient5354)" d="m 188.4,190.6 c -0.6,1.2 -1.1,2.3 -1.7,3.5 -1.7,3.6 -3.5,7.2 -5.2,10.9 -1.9,4 -3.8,8.1 -5.8,12.3 -1,2.1 -2,4.2 -3,6.4 -3,6.5 -6,13.2 -9.1,20.1 -3.8,8.5 -7.6,17.3 -11.5,26.5 -3.7,8.7 -7.5,17.8 -11.3,27.1 -3.6,8.9 -7.3,18 -11,27.5 -3.3,8.4 -6.6,17.1 -10,26 -0.2,0.4 -0.3,0.9 -0.5,1.3 -3.3,8.8 -6.7,17.9 -10.1,27.2 -0.1,0.2 -0.2,0.4 -0.2,0.6 l 16.1,-1.8 c -0.3,-0.1 -0.6,-0.1 -1,-0.2 19.3,-2.4 44.9,-16.8 61.4,-34.6 7.6,-8.2 14.5,-17.8 20.9,-29.1 4.8,-8.4 9.2,-17.7 13.5,-28.1 3.7,-9 7.3,-18.8 10.7,-29.4 -4.4,2.3 -9.5,4 -15.1,5.2 -1,0.2 -2,0.4 -3,0.6 -1,0.2 -2,0.3 -3.1,0.5 l 0,0 0,0 c 0,0 0,0 0,0 18,-6.9 29.3,-20.2 37.5,-36.6 -4.7,3.2 -12.4,7.4 -21.6,9.5 -1.2,0.3 -2.5,0.5 -3.8,0.7 -0.3,0 -0.6,0.1 -1,0.1 l 0,0 0,0 c 0,0 0,0 0,0 0,0 0,0 0,0 l 0,0 c 6.2,-2.6 11.5,-5.5 16.1,-9 1,-0.7 1.9,-1.5 2.8,-2.3 1.4,-1.2 2.7,-2.5 4,-3.8 0.8,-0.9 1.6,-1.7 2.4,-2.6 1.8,-2.1 3.5,-4.4 5,-6.9 0.5,-0.8 1,-1.5 1.4,-2.3 0.6,-1.2 1.2,-2.3 1.7,-3.4 2.5,-5 4.5,-9.5 6.1,-13.5 0.8,-2 1.5,-3.8 2.1,-5.5 0.2,-0.7 0.5,-1.3 0.7,-2 0.6,-1.9 1.2,-3.6 1.6,-5.1 0.6,-2.2 1,-4 1.2,-5.3 l 0,0 0,0 c -0.6,0.5 -1.3,1 -2.1,1.4 -5.4,3.2 -14.7,6.2 -22.2,7.6 l 14.8,-1.6 -14.8,1.6 c -0.1,0 -0.2,0 -0.3,0.1 -0.7,0.1 -1.5,0.2 -2.3,0.4 0.1,-0.1 0.3,-0.1 0.4,-0.2 l -50.6,5.5 c 0.1,0.4 0,0.6 -0.1,0.7 z"/><linearGradient id="SVGID_7_" x1="-8271.806" x2="-7732.125" y1="-765.071" y2="-765.071" gradientTransform="matrix(0.4226,-0.9063,0.9063,0.4226,4226.9761,-6584.5938)" gradientUnits="userSpaceOnUse"><stop id="stop4784" offset=".323" stop-color="#9e2064" stop-opacity="1"/><stop id="stop4786" offset=".63" stop-color="#c92037" stop-opacity="1"/><stop id="stop4788" offset=".751" stop-color="#cd2335" stop-opacity="1"/><stop id="stop4790" offset="1" stop-color="#e97826" stop-opacity="1"/></linearGradient><path id="path4792" fill="url(#linearGradient5356)" d="m 245.4,88.4 c -4.5,6.9 -9.4,14.8 -14.7,23.6 -0.3,0.5 -0.6,0.9 -0.8,1.4 -4.6,7.7 -9.4,16.1 -14.5,25.4 -4.4,8 -9,16.5 -13.8,25.8 -4.2,8 -8.4,16.5 -12.9,25.5 l 50.6,-5.5 c 14.7,-6.8 21.3,-12.9 27.7,-21.8 1.7,-2.4 3.4,-5 5.1,-7.7 5.2,-8.1 10.3,-17 14.8,-25.9 4.4,-8.6 8.3,-17.1 11.2,-24.7 1.9,-4.9 3.4,-9.4 4.5,-13.4 0.9,-3.5 1.6,-6.8 2.2,-10 -19.6,3.3 -43.7,6.5 -59.4,7.3 z"/><path id="path4794" fill="#be202e" d="m 212.7,262.8 c -1,0.2 -2,0.3 -3.1,0.5 l 0,0 c 1,-0.2 2,-0.4 3.1,-0.5 z"/><path id="path4796" fill="#be202e" d="m 212.7,262.8 c -1,0.2 -2,0.3 -3.1,0.5 l 0,0 c 1,-0.2 2,-0.4 3.1,-0.5 z" opacity=".35"/><linearGradient id="SVGID_8_" x1="-8238.328" x2="-7698.647" y1="-745.685" y2="-745.685" gradientTransform="matrix(0.4226,-0.9063,0.9063,0.4226,4226.9761,-6584.5938)" gradientUnits="userSpaceOnUse"><stop id="stop4799" offset=".323" stop-color="#9e2064" stop-opacity="1"/><stop id="stop4801" offset=".63" stop-color="#c92037" stop-opacity="1"/><stop id="stop4803" offset=".751" stop-color="#cd2335" stop-opacity="1"/><stop id="stop4805" offset="1" stop-color="#e97826" stop-opacity="1"/></linearGradient><path id="path4807" fill="url(#linearGradient5358)" d="m 212.7,262.8 c -1,0.2 -2,0.3 -3.1,0.5 l 0,0 c 1,-0.2 2,-0.4 3.1,-0.5 z"/><path id="path4809" fill="#be202e" d="m 220.7,236.9 c 0.3,0 0.6,-0.1 1,-0.1 -0.3,0 -0.6,0.1 -1,0.1 l 0,0 z"/><path id="path4811" fill="#be202e" d="m 220.7,236.9 c 0.3,0 0.6,-0.1 1,-0.1 -0.3,0 -0.6,0.1 -1,0.1 l 0,0 z" opacity=".35"/><linearGradient id="SVGID_9_" x1="-8238.328" x2="-7698.647" y1="-747.586" y2="-747.586" gradientTransform="matrix(0.4226,-0.9063,0.9063,0.4226,4226.9761,-6584.5938)" gradientUnits="userSpaceOnUse"><stop id="stop4814" offset=".323" stop-color="#9e2064" stop-opacity="1"/><stop id="stop4816" offset=".63" stop-color="#c92037" stop-opacity="1"/><stop id="stop4818" offset=".751" stop-color="#cd2335" stop-opacity="1"/><stop id="stop4820" offset="1" stop-color="#e97826" stop-opacity="1"/></linearGradient><path id="path4822" fill="url(#linearGradient5360)" d="m 220.7,236.9 c 0.3,0 0.6,-0.1 1,-0.1 -0.3,0 -0.6,0.1 -1,0.1 l 0,0 z"/><path id="path4824" fill="#be202e" d="m 220.8,236.9 c 0,0 0,0 0,0 l 0,0 0,0 0,0 c 0,0 0,0 0,0 z"/><path id="path4826" fill="#be202e" d="m 220.8,236.9 c 0,0 0,0 0,0 l 0,0 0,0 0,0 c 0,0 0,0 0,0 z" opacity=".35"/><linearGradient id="SVGID_10_" x1="-7935.143" x2="-7815.856" y1="-747.967" y2="-747.967" gradientTransform="matrix(0.4226,-0.9063,0.9063,0.4226,4226.9761,-6584.5938)" gradientUnits="userSpaceOnUse"><stop id="stop4829" offset=".323" stop-color="#9e2064" stop-opacity="1"/><stop id="stop4831" offset=".63" stop-color="#c92037" stop-opacity="1"/><stop id="stop4833" offset=".751" stop-color="#cd2335" stop-opacity="1"/><stop id="stop4835" offset="1" stop-color="#e97826" stop-opacity="1"/></linearGradient><path id="path4837" fill="url(#linearGradient5362)" d="m 220.8,236.9 c 0,0 0,0 0,0 l 0,0 0,0 0,0 c 0,0 0,0 0,0 z"/></g></g></svg>